<?xml version="1.0" encoding="UTF-8"?>
<svg id="Dimensions" xmlns="http://www.w3.org/2000/svg" version="1.1" viewBox="0 0 209.78 204.74">
  <!-- Generator: Adobe Illustrator 29.8.1, SVG Export Plug-In . SVG Version: 2.1.1 Build 2)  -->
  <defs>
    <style>
      .st0 {
        fill: #231f20;
      }
    </style>
  </defs>
  <g id="aUQdkh">
    <path d="M141.54,45.61v6.76s-59.85,49.57-59.85,49.57l24.05,22.78,26.47-24.41c.19-.53-.32-.83-.32-.97v-14.48l-29.38,23.76-6.62-6.61,45.65-37.74v40.22c-11.95,11.2-23.56,23.01-36.36,33.17l-35.6-33.29v-4.26s53.29-44.86,53.29-44.86h-43.76v23.49l-9.65,8.04v-41.19h72.08Z"/>
  </g>
  <g>
    <path class="st0" d="M60.76,153.71c-1.17.15-1.24.26-1.24,1.37v1.58c0,.66.02,1.28.11,1.79-1.17.26-2.69.68-4.27.68-4.27,0-6.87-2.65-6.87-6.43,0-3.97,3.24-6.34,7-6.34,1.92,0,3.33.38,3.91.47.04.7.13,1.84.28,3.03l-.56.11c-.45-1.6-1-2.28-2.18-2.67-.43-.15-1.2-.25-1.75-.25-2.88,0-4.74,1.98-4.74,5.42,0,2.99,1.54,5.96,5.19,5.96.64,0,1.22-.13,1.6-.32.39-.23.64-.43.64-1.2v-1.54c0-1.37-.15-1.52-1.96-1.66v-.54h4.83v.54Z"/>
    <path class="st0" d="M81.08,155.72c-.11.58-.68,2.54-.87,3.12h-8.75v-.53c1.71-.17,1.86-.26,1.86-1.86v-7.47c0-1.6-.19-1.69-1.69-1.84v-.53h5.04v.53c-1.5.15-1.71.23-1.71,1.84v7.66c0,1.15.15,1.41,1.22,1.43.02,0,1.37.02,1.49.02.96,0,1.24-.11,1.67-.58.47-.49.87-1.24,1.15-1.94l.58.15Z"/>
    <path class="st0" d="M91.73,158.85v-.53c1.54-.17,1.69-.25,1.69-1.84v-7.47c0-1.62-.15-1.69-1.69-1.86v-.53h5.04v.53c-1.56.17-1.71.24-1.71,1.86v7.47c0,1.62.15,1.67,1.71,1.84v.53h-5.04Z"/>
    <path class="st0" d="M118.39,155.63c-.13.64-.58,2.41-.77,3.22h-9.78l-.17-.3c2.62-3.61,5.23-7.36,7.88-11.18h-3.71c-1.67,0-1.96.11-2.35.7-.19.24-.47.87-.71,1.58l-.56-.02c.09-.98.32-2.62.36-3.44h.49c.21.45.43.43,1,.43h7.6l.15.3c-2.62,3.67-5.16,7.32-7.75,11.12.58.04,1.81.06,3.08.06,2.46,0,3.03-.09,3.56-.68.4-.4.81-1.13,1.15-1.92l.54.13Z"/>
    <path class="st0" d="M139.72,155.63c-.13.64-.58,2.41-.77,3.22h-9.78l-.17-.3c2.62-3.61,5.23-7.36,7.88-11.18h-3.71c-1.67,0-1.96.11-2.35.7-.19.24-.47.87-.71,1.58l-.56-.02c.09-.98.32-2.62.36-3.44h.49c.21.45.43.43,1,.43h7.6l.15.3c-2.62,3.67-5.16,7.32-7.75,11.12.58.04,1.81.06,3.08.06,2.46,0,3.03-.09,3.56-.68.4-.4.81-1.13,1.15-1.92l.54.13Z"/>
    <path class="st0" d="M161.28,147.15c-1.32.15-1.54.36-2.29,1.56-.85,1.37-1.54,2.67-2.46,4.35-.23.43-.28.66-.28,1.11v2.31c0,1.56.17,1.67,1.92,1.84v.53h-5.4v-.53c1.71-.23,1.84-.26,1.84-1.84v-2.43c0-.38-.08-.54-.38-1.09-.66-1.22-1.3-2.41-2.31-4.18-.73-1.28-.92-1.5-2.2-1.64v-.53h4.63v.53c-1.35.19-1.28.43-.94,1.07.79,1.45,1.67,3.14,2.46,4.55.68-1.26,1.75-3.31,2.28-4.35.43-.94.38-1.13-1.11-1.28v-.53h4.25v.53Z"/>
  </g>
</svg>